<?xml version="1.0" standalone="no"?>
<!DOCTYPE svg PUBLIC "-//W3C//DTD SVG 20010904//EN"
 "http://www.w3.org/TR/2001/REC-SVG-20010904/DTD/svg10.dtd">
<svg version="1.0" xmlns="http://www.w3.org/2000/svg"
 width="501.000000pt" height="160.000000pt" viewBox="0 0 501.000000 160.000000"
 preserveAspectRatio="xMidYMid meet">

<g transform="translate(0.000000,160.000000) scale(0.100000,-0.100000)"
fill="#000000" stroke="none">
<path d="M242 1042 c-117 -42 -173 -158 -125 -259 24 -52 75 -79 208 -113 144
-37 183 -55 191 -86 17 -65 -28 -104 -119 -104 -73 0 -122 32 -141 93 -5 14
-18 17 -90 17 l-84 0 9 -42 c15 -67 57 -119 124 -153 56 -28 65 -30 179 -30
105 0 128 3 171 23 27 13 61 33 74 45 56 52 78 163 45 233 -24 50 -86 82 -228
118 -145 37 -176 54 -176 96 0 41 36 63 103 63 66 0 112 -23 125 -63 l11 -30
82 0 82 0 -6 37 c-9 56 -54 113 -112 142 -69 35 -242 42 -323 13z"/>
<path d="M975 1046 c-65 -21 -99 -42 -139 -87 -67 -73 -81 -118 -81 -249 0
-96 3 -122 21 -161 31 -67 87 -124 152 -156 51 -25 67 -28 162 -28 121 0 177
19 243 83 135 130 137 390 5 521 -58 58 -130 85 -233 88 -54 2 -106 -3 -130
-11z m172 -127 c41 -15 81 -57 94 -98 17 -48 16 -180 -1 -222 -30 -78 -96
-116 -176 -104 -90 13 -136 86 -136 216 0 78 17 135 50 173 37 41 112 57 169
35z"/>
<path d="M2477 1041 c-44 -21 -83 -55 -108 -96 l-19 -30 0 68 0 67 -85 0 -85
0 0 -335 0 -335 90 0 90 0 0 179 c0 182 6 222 42 274 30 42 74 60 146 61 l62
0 0 83 0 83 -47 -1 c-27 0 -65 -9 -86 -18z"/>
<path d="M2820 1046 c-123 -41 -197 -133 -222 -275 -21 -121 13 -241 89 -317
83 -83 236 -117 358 -78 97 30 178 120 200 222 l7 33 -88 -3 c-87 -3 -87 -3
-97 -33 -24 -74 -104 -118 -176 -96 -83 24 -130 126 -116 250 13 114 81 186
167 178 61 -5 97 -30 116 -78 l15 -39 87 0 87 0 -7 38 c-16 88 -87 164 -183
196 -55 19 -184 20 -237 2z"/>
<path d="M3486 1035 c-85 -35 -132 -80 -174 -165 -24 -49 -27 -66 -27 -160 0
-92 3 -112 26 -160 58 -123 144 -181 284 -188 108 -6 176 14 239 69 38 34 96
120 96 144 0 3 -33 5 -74 5 -71 0 -75 -1 -108 -34 -56 -56 -133 -69 -206 -36
-33 15 -47 29 -62 62 -11 24 -20 55 -20 71 l0 27 240 0 240 0 0 53 c0 145 -88
281 -208 321 -70 24 -175 20 -246 -9z m201 -125 c38 -23 60 -55 69 -98 l7 -32
-152 0 -151 0 0 24 c0 34 40 88 80 108 46 23 107 23 147 -2z"/>
<path d="M1492 782 c3 -264 3 -268 29 -317 32 -64 86 -95 175 -103 89 -7 147
12 202 65 25 24 47 43 49 43 2 0 3 -20 3 -45 l0 -45 85 0 85 0 0 335 0 335
-89 0 -89 0 -4 -222 c-4 -236 -9 -258 -57 -302 -30 -27 -122 -34 -157 -11 -48
31 -54 65 -54 310 l0 225 -91 0 -90 0 3 -268z"/>
</g>
</svg>
