<?xml version="1.0" standalone="no"?>
<!DOCTYPE svg PUBLIC "-//W3C//DTD SVG 20010904//EN"
 "http://www.w3.org/TR/2001/REC-SVG-20010904/DTD/svg10.dtd">
<svg version="1.0" xmlns="http://www.w3.org/2000/svg"
 width="501.000000pt" height="501.000000pt" viewBox="0 0 501.000000 501.000000"
 preserveAspectRatio="xMidYMid meet">
<metadata>
Created by potrace 1.14, written by Peter Selinger 2001-2017
</metadata>
<g transform="translate(0.000000,501.000000) scale(0.100000,-0.100000)"
fill="#000000" stroke="none">
<path d="M4256 3273 c-1 -1 -165 -3 -364 -4 -427 -3 -489 -11 -653 -86 -91
-41 -117 -74 -99 -127 10 -32 43 -56 77 -56 9 0 35 11 58 24 41 24 135 60 191
71 57 12 210 12 279 0 127 -22 246 -83 346 -177 104 -97 174 -237 204 -403 7
-40 7 -174 0 -205 -3 -14 -7 -36 -10 -49 -20 -109 -96 -246 -193 -348 -51 -55
-57 -71 -40 -116 12 -32 36 -47 73 -47 34 0 109 70 173 163 68 98 70 103 242
522 84 204 158 384 165 400 40 93 48 126 43 190 -9 111 -80 200 -181 230 -43
12 -301 27 -311 18z m234 -108 c84 -43 77 -135 -18 -247 -72 -83 -72 -77 4
-76 58 1 69 -2 74 -18 15 -40 3 -44 -116 -42 l-114 2 0 26 c0 35 26 79 85 146
57 65 63 77 64 121 1 23 -4 33 -19 38 -25 8 -40 -1 -40 -25 0 -20 -19 -30 -46
-25 -11 2 -22 4 -26 4 -11 1 -10 26 3 55 13 27 61 55 97 56 13 0 36 -7 52 -15z"/>
<path d="M4878 2943 c7 -3 16 -2 19 1 4 3 -2 6 -13 5 -11 0 -14 -3 -6 -6z"/>
<path d="M4844 2928 c-4 -7 -3 -8 4 -4 8 5 12 -2 12 -19 0 -15 -4 -24 -10 -20
-6 3 -7 -1 -4 -9 6 -16 25 -23 23 -8 -6 34 16 44 26 11 5 -16 10 -18 21 -8 8
6 14 17 13 23 0 7 -2 6 -6 -1 -8 -20 -21 -15 -25 8 -3 25 -43 44 -54 27z"/>
<path d="M4910 2931 c0 -6 4 -13 10 -16 6 -3 7 1 4 9 -7 18 -14 21 -14 7z"/>
<path d="M263 2760 c-78 -21 -121 -53 -145 -107 -35 -80 -23 -160 30 -205 37
-31 62 -41 202 -78 128 -35 157 -49 166 -84 14 -58 -47 -101 -134 -93 -65 6
-103 31 -116 75 -11 35 -28 40 -129 34 -55 -4 -57 -5 -53 -29 17 -92 77 -158
169 -187 104 -33 254 -24 338 20 50 25 97 83 105 128 18 93 0 156 -55 196 -33
23 -127 58 -180 66 -70 11 -159 44 -166 62 -28 62 2 92 93 92 60 0 93 -17 112
-57 l15 -33 88 0 87 0 -6 28 c-31 129 -114 183 -290 187 -40 1 -97 -6 -131
-15z"/>
<path d="M984 2760 c-147 -40 -231 -155 -239 -325 -10 -221 129 -367 350 -367
169 0 283 83 330 240 22 73 14 205 -18 274 -69 153 -245 227 -423 178z m191
-148 c81 -46 105 -238 42 -341 -57 -94 -210 -84 -261 18 -27 53 -35 165 -16
228 32 106 138 149 235 95z"/>
<path d="M2525 2770 c-60 -13 -129 -62 -162 -115 -11 -17 -13 -11 -11 40 l2
60 -89 0 -90 0 0 -325 c-1 -179 1 -331 3 -337 3 -9 31 -13 93 -12 l89 1 0 51
c2 284 6 332 28 378 30 62 82 91 162 90 l60 0 0 85 c0 46 -3 85 -7 85 -28 5
-52 5 -78 -1z"/>
<path d="M2840 2764 c-151 -40 -237 -150 -247 -319 -15 -227 121 -378 337
-377 165 1 269 75 314 225 l14 47 -93 0 c-92 0 -93 0 -100 -27 -32 -128 -201
-147 -262 -30 -56 109 -19 305 65 339 75 30 152 6 183 -58 l21 -44 89 0 89 0
-5 29 c-13 77 -49 132 -114 172 -81 52 -193 68 -291 43z"/>
<path d="M3528 2764 c-179 -46 -282 -226 -245 -428 35 -193 220 -307 423 -261
81 19 137 57 183 126 45 67 50 89 24 90 -120 4 -131 2 -167 -34 -67 -67 -187
-68 -246 -1 -16 19 -31 42 -31 52 -1 9 -3 28 -4 42 l-3 26 241 -1 242 0 -2 66
c-5 147 -94 279 -215 318 -53 17 -145 20 -200 5z m156 -144 c31 -16 59 -57 70
-101 l5 -25 -149 -1 -150 0 4 22 c5 26 24 64 40 81 40 40 125 51 180 24z"/>
<path d="M1487 2753 c-2 -5 -3 -120 -2 -258 2 -235 3 -253 24 -302 39 -88 98
-124 210 -126 77 -1 140 23 186 71 17 17 32 32 35 32 3 0 4 -20 3 -44 l-2 -44
90 0 89 -1 0 340 0 340 -92 -3 -93 -3 -1 -195 c-1 -107 -4 -212 -8 -234 -13
-78 -74 -124 -149 -112 -51 8 -62 14 -80 46 -23 38 -25 72 -26 308 l-1 192
-89 0 c-50 0 -91 -3 -94 -7z"/>
</g>
</svg>
