<svg version="1.0" xmlns="http://www.w3.org/2000/svg" width="668" height="213.333" viewBox="0 0 501 160"><path d="M24.2 55.8C12.5 60 6.9 71.6 11.7 81.7c2.4 5.2 7.5 7.9 20.8 11.3 14.4 3.7 18.3 5.5 19.1 8.6 1.7 6.5-2.8 10.4-11.9 10.4-7.3 0-12.2-3.2-14.1-9.3-.5-1.4-1.8-1.7-9-1.7H8.2l.9 4.2c1.5 6.7 5.7 11.9 12.4 15.3 5.6 2.8 6.5 3 17.9 3 10.5 0 12.8-.3 17.1-2.3 2.7-1.3 6.1-3.3 7.4-4.5 5.6-5.2 7.8-16.3 4.5-23.3-2.4-5-8.6-8.2-22.8-11.8C31.1 77.9 28 76.2 28 72c0-4.1 3.6-6.3 10.3-6.3 6.6 0 11.2 2.3 12.5 6.3l1.1 3h16.4l-.6-3.7c-.9-5.6-5.4-11.3-11.2-14.2-6.9-3.5-24.2-4.2-32.3-1.3zm73.3-.4c-6.5 2.1-9.9 4.2-13.9 8.7-6.7 7.3-8.1 11.8-8.1 24.9 0 9.6.3 12.2 2.1 16.1 3.1 6.7 8.7 12.4 15.2 15.6 5.1 2.5 6.7 2.8 16.2 2.8 12.1 0 17.7-1.9 24.3-8.3 13.5-13 13.7-39 .5-52.1-5.8-5.8-13-8.5-23.3-8.8-5.4-.2-10.6.3-13 1.1zm17.2 12.7c4.1 1.5 8.1 5.7 9.4 9.8 1.7 4.8 1.6 18-.1 22.2-3 7.8-9.6 11.6-17.6 10.4-9-1.3-13.6-8.6-13.6-21.6 0-7.8 1.7-13.5 5-17.3 3.7-4.1 11.2-5.7 16.9-3.5zm133-12.2c-4.4 2.1-8.3 5.5-10.8 9.6l-1.9 3V55h-17v67h18v-17.9c0-18.2.6-22.2 4.2-27.4 3-4.2 7.4-6 14.6-6.1h6.2V54l-4.7.1c-2.7 0-6.5.9-8.6 1.8zm34.3-.5c-12.3 4.1-19.7 13.3-22.2 27.5-2.1 12.1 1.3 24.1 8.9 31.7 8.3 8.3 23.6 11.7 35.8 7.8 9.7-3 17.8-12 20-22.2l.7-3.3-8.8.3c-8.7.3-8.7.3-9.7 3.3-2.4 7.4-10.4 11.8-17.6 9.6-8.3-2.4-13-12.6-11.6-25 1.3-11.4 8.1-18.6 16.7-17.8 6.1.5 9.7 3 11.6 7.8l1.5 3.9h17.4l-.7-3.8c-1.6-8.8-8.7-16.4-18.3-19.6-5.5-1.9-18.4-2-23.7-.2zm66.6 1.1c-8.5 3.5-13.2 8-17.4 16.5-2.4 4.9-2.7 6.6-2.7 16 0 9.2.3 11.2 2.6 16 5.8 12.3 14.4 18.1 28.4 18.8 10.8.6 17.6-1.4 23.9-6.9 3.8-3.4 9.6-12 9.6-14.4 0-.3-3.3-.5-7.4-.5-7.1 0-7.5.1-10.8 3.4-5.6 5.6-13.3 6.9-20.6 3.6-3.3-1.5-4.7-2.9-6.2-6.2-1.1-2.4-2-5.5-2-7.1V93h48v-5.3c0-14.5-8.8-28.1-20.8-32.1-7-2.4-17.5-2-24.6.9zM368.7 69c3.8 2.3 6 5.5 6.9 9.8l.7 3.2H346v-2.4c0-3.4 4-8.8 8-10.8 4.6-2.3 10.7-2.3 14.7.2zM149.2 81.8c.3 26.4.3 26.8 2.9 31.7 3.2 6.4 8.6 9.5 17.5 10.3 8.9.7 14.7-1.2 20.2-6.5 2.5-2.4 4.7-4.3 4.9-4.3.2 0 .3 2 .3 4.5v4.5h17V55h-17.8l-.4 22.2c-.4 23.6-.9 25.8-5.7 30.2-3 2.7-12.2 3.4-15.7 1.1-4.8-3.1-5.4-6.5-5.4-31V55h-18.1l.3 26.8z"/></svg>