<?xml version="1.0" encoding="UTF-8"?><!DOCTYPE svg PUBLIC "-//W3C//DTD SVG 1.1//EN" "http://www.w3.org/Graphics/SVG/1.1/DTD/svg11.dtd"><svg xmlns="http://www.w3.org/2000/svg" xmlns:xlink="http://www.w3.org/1999/xlink"><symbol id="icon-image"><path d="M479.942 64a.53.53 0 01.058.058v383.885a.53.53 0 01-.058.058H32.057a.446.446 0 01-.057-.058V64.057a.511.511 0 01.057-.057h447.885zM480 32H32C14.4 32 0 46.4 0 64v384c0 17.6 14.4 32 32 32h448c17.6 0 32-14.4 32-32V64c0-17.6-14.4-32-32-32z"/><path d="M416 144c0 26.51-21.49 48-48 48s-48-21.49-48-48 21.49-48 48-48 48 21.49 48 48zm32 272H64v-64l112-192 128 160h32l112-96z"/></symbol><symbol id="icon-paint-format"><path d="M512 288V96h-96V64c0-17.6-14.4-32-32-32H32C14.4 32 0 46.4 0 64v96c0 17.6 14.4 32 32 32h352c17.6 0 32-14.4 32-32v-32h64v128H192v64h-16c-8.837 0-16 7.163-16 16v160c0 8.837 7.163 16 16 16h64c8.837 0 16-7.163 16-16V336c0-8.837-7.163-16-16-16h-16v-32h288zM384 96H32V64h352v32z"/></symbol><symbol id="icon-home"><path d="M512 295.222L256 96.509 0 295.223v-81.019L256 15.491l256 198.714zM448 288v192H320V352H192v128H64V288l192-144z"/></symbol></svg>